# xmcd
#
# Track frame offsets:
#	150
#	15377
#	27432
#	41987
#	59920
#	73805
#	87687
#	104502
#	123040
#	142385
#	155360
#	177190
#	191610
#	204140
#
# Disc length: 2964
#
# Revision: 1
# Processed by: cddbd v1.5.1PL0 Copyright (c) Steve Scherf et al.
# Submitted via: VisiTrax 2.9.5.180 - For more info visit www.synapsa.com
# Normalized: r0:DSETVAR1
#
DISCID=d00b920e
DTITLE=Various Artist - Mr Music Country 11-02
DYEAR=2002
DGENRE=Country
TTITLE0=Brooks and Dunn - Lucky Me, Lonely You
TTITLE1=Brad Paisley - All You Really Need Is Love
TTITLE2=Susanna Van Tassel - I Had a Feeling
TTITLE3=Alan Jackson - Where I Come From
TTITLE4=Kellie Coffey - I Just Knew
TTITLE5=Ronnie Milsap - Don't You Ever Get Tired (Of Hurting Me)
TTITLE6=Andy Griggs - Sweetheart Of Beinja Bayou
TTITLE7=Martina McBride - When God-Fearin' Women Get The Blues
TTITLE8=Charlie Louvin - Ira
TTITLE9=Stan Martin - Because Of You
TTITLE10=Carolyn Dawn Johnson - Georgia
TTITLE11=Lonestar - Every Little Thing She Does
TTITLE12=Jerry Reed - Tupelo Mississippi Flash
TTITLE13=Pauline Reese - Trail To Monterrey
EXTD=
EXTT0=
EXTT1=
EXTT2=
EXTT3=
EXTT4=
EXTT5=
EXTT6=
EXTT7=
EXTT8=
EXTT9=
EXTT10=
EXTT11=
EXTT12=
EXTT13=
PLAYORDER=
